<?xml version="1.0" encoding="utf-8"?>
<!-- Generator: Adobe Illustrator 13.0.0, SVG Export Plug-In  -->
<!DOCTYPE svg PUBLIC "-//W3C//DTD SVG 1.1//EN" "http://www.w3.org/Graphics/SVG/1.1/DTD/svg11.dtd" [
	<!ENTITY ns_flows "http://ns.adobe.com/Flows/1.0/">
]>
<svg version="1.1"
	 xmlns="http://www.w3.org/2000/svg" xmlns:xlink="http://www.w3.org/1999/xlink" xmlns:a="http://ns.adobe.com/AdobeSVGViewerExtensions/3.0/"
	 x="0px" y="0px" width="64px" height="64px" viewBox="0 0 64 64" enable-background="new 0 0 64 64" xml:space="preserve">
<defs>
</defs>
<linearGradient id="SVGID_1_" gradientUnits="userSpaceOnUse" x1="830.1729" y1="-1185.0732" x2="875.4279" y2="-1230.3284" gradientTransform="matrix(1 0 0 -1 -820.7988 -1175.7012)">
	<stop  offset="0" style="stop-color:#947369"/>
	<stop  offset="1" style="stop-color:#B08C78"/>
</linearGradient>
<circle fill="url(#SVGID_1_)" cx="32" cy="32" r="32"/>
<linearGradient id="SVGID_2_" gradientUnits="userSpaceOnUse" x1="852.7988" y1="-1177.8921" x2="852.7988" y2="-1237.502" gradientTransform="matrix(1 0 0 -1 -820.7988 -1175.7012)">
	<stop  offset="0" style="stop-color:#937D6F"/>
	<stop  offset="1" style="stop-color:#F7E5D1"/>
</linearGradient>
<path fill="url(#SVGID_2_)" d="M32,61.801c-16.428,0-29.805-13.379-29.805-29.805C2.195,15.568,15.572,2.191,32,2.191
	c16.43,0,29.805,13.377,29.805,29.805C61.801,48.422,48.422,61.801,32,61.801L32,61.801z"/>
<path fill="#685546" d="M32,2c16.539,0,30,13.459,30,30c0,16.539-13.461,30-30,30C15.459,62,2,48.539,2,32C2,15.459,15.459,2,32,2
	 M32,2.4C15.676,2.4,2.4,15.68,2.4,32c0,16.32,13.28,29.602,29.6,29.602c16.32,0,29.602-13.281,29.602-29.602
	C61.602,15.676,48.32,2.4,32,2.4L32,2.4z"/>
<path id="path3278_4_" fill="#B8A187" d="M51.57,23.225c-0.105-3.012-2.023-4.42-4.82-5.041
	C47.586,20.004,48.02,21.385,51.57,23.225z"/>
<path id="path3246_4_" fill="#B8A187" d="M40.25,52.859c0,0,2.078,0.104,2.992-0.176c1.43-0.441,6.277-0.777,6.277-0.777
	s-2.457,2.402-5.353,2.516c-2.681,0.094-6.104-0.633-6.104-0.633L40.25,52.859z"/>
<path id="path3244_4_" fill="#B8A187" d="M28.084,56.898c0.316-0.035,4.771-2.031,7.369-3.25c2.609-1.234,3.484-1.992,4.055-2.898
	c2.027-3.164,4.473-3.195,4.473-3.195s-0.215,2.961-3.477,5.5c-1.363,1.063-1.77,0.672-3.746,1.523
	c-1.984,0.852-5.754,3.164-5.754,3.164L28.084,56.898z"/>
<path id="path3250_4_" fill="#B8A187" d="M54.555,48.789c0,0-1.229,2.266-3.742,2.469c-0.949,0.07-5.733,0.172-5.733,0.172
	s2.313-2.188,3.194-2.219C53.719,49.094,54.555,48.789,54.555,48.789z"/>
<path id="path3252_4_" fill="#B8A187" d="M56.996,42.129c-0.379,2.941-1.137,5.738-7.668,6.254c0,0,1.977-2.5,3.133-3.102
	C54.742,44.117,56.996,42.129,56.996,42.129z"/>
<path id="path3254_4_" fill="#B8A187" d="M49.781,39.266c2.359,2.771,1.664,5.672-1.477,8.945c0,0-0.406-2.734,0.258-3.867
	C48.797,43.945,49.711,40.672,49.781,39.266z"/>
<path id="path3256_4_" fill="#B8A187" d="M52.199,44.289c4.465-1.918,5.266-5.621,5.313-9.492l-0.254,0.609
	c0,0-2.344,1.906-3.195,3.223C53.266,39.859,52.199,44.289,52.199,44.289z"/>
<path id="path3258_4_" fill="#B8A187" d="M57.102,26.336c0.023,1.137,1.806,7.229-2.457,10.352c0,0-0.608-3.526,0-6.119
	C55.266,27.98,57.102,26.336,57.102,26.336z"/>
<path id="path3260_4_" fill="#B8A187" d="M54.289,19.852c0,0,1.852,2.457,1.82,4.861c-0.023,2.402-1.93,4.76-1.93,4.76
	c-0.646-2.668-0.832-4.596-0.414-6.225C54.027,22.209,54.336,21.096,54.289,19.852z"/>
<path id="path3262_4_" fill="#B8A187" d="M52.664,22.992c1.57-3.252,0.414-5.779-2.609-8.057
	C50.004,18.328,51.184,20.703,52.664,22.992z"/>
<path id="path3264_4_" fill="#B8A187" d="M49.469,17.396c0,0,0.438-2.205-0.734-3.764c-0.805-1.088-3.336-2.881-3.336-2.881
	s0.156,2.26,1.25,3.871c0.359,0.514,1.328,1.014,1.853,1.457C49.016,16.527,49.469,17.396,49.469,17.396z"/>
<path id="path3266_4_" fill="#B8A187" d="M41.473,8.191c2.918,1.248,3.051,2.645,3.398,4.029
	C43.367,11.064,41.648,10.012,41.473,8.191z"/>
<path id="path3268_4_" fill="#B8A187" d="M41.055,9.5c-1.453-0.752-2.727-1.664-3.344-3.244C39.824,7.023,41.164,8.031,41.055,9.5z"
	/>
<path id="path3270_4_" fill="#B8A187" d="M37.898,8.264c-0.728-0.531-1.074-1.305-3.363-0.844
	C35.055,8.129,36.344,8.291,37.898,8.264z"/>
<path id="path3272_4_" fill="#B8A187" d="M41.43,10.504c-0.859-1.279-2.762-1.5-5.09-1.287
	C37.473,10.275,39.094,10.783,41.43,10.504z"/>
<path id="path3274_4_" fill="#B8A187" d="M45.078,13.473c-2.664-0.057-5.219-0.205-6.105-1.732
	C42.273,11.027,43.82,12.111,45.078,13.473z"/>
<path id="path3276_4_" fill="#B8A187" d="M48.66,17.676c0,0-0.754-1.928-2.359-2.691c-0.754-0.365-3.816-0.789-3.816-0.789
	c0.759,0.928,1.423,2.057,2.816,2.525C46.508,17.133,47.676,17.283,48.66,17.676z"/>
<path id="path3280_4_" fill="#B8A187" d="M53.309,29.832c0.06-4.615-2.559-6.023-5.44-7.111c0,0,1.603,2.588,2.188,3.752
	C50.57,27.48,53.309,29.832,53.309,29.832z"/>
<path id="path3282_4_" fill="#B8A187" d="M53.699,35.211c0,0,0.66-1.787-0.277-3.752c-0.934-1.955-3.469-4.092-3.469-4.092
	s-0.148,3.537,1.281,5.156C51.781,33.141,53.699,35.211,53.699,35.211z"/>
<path id="path3284_4_" fill="#B8A187" d="M50.398,32.469c2.738,2.242,2.969,5.484,1.672,9.367
	C50.055,39.141,49.898,35.906,50.398,32.469z"/>
<path id="path3278_1_" fill="#B8A187" d="M17.252,18.184c-2.801,0.621-4.711,2.029-4.828,5.041
	C15.984,21.389,16.416,20.008,17.252,18.184z"/>
<path id="path3246_1_" fill="#B8A187" d="M25.932,53.789c0,0-3.42,0.727-6.1,0.633c-2.9-0.121-5.352-2.516-5.352-2.516
	s4.844,0.336,6.279,0.77c0.916,0.277,2.996,0.176,2.996,0.176L25.932,53.789z"/>
<path id="path3244_1_" fill="#B8A187" d="M32.992,57.742c0,0-3.771-2.305-5.748-3.164c-1.969-0.852-2.381-0.461-3.748-1.523
	c-3.264-2.531-3.48-5.5-3.48-5.5s2.449,0.039,4.484,3.203c0.564,0.906,1.436,1.664,4.045,2.898c2.6,1.219,7.057,3.215,7.377,3.25
	L32.992,57.742z"/>
<path id="path3250_1_" fill="#B8A187" d="M15.732,49.211c0.871,0.039,3.188,2.219,3.188,2.219s-4.787-0.094-5.732-0.172
	c-2.512-0.195-3.736-2.457-3.736-2.457S10.283,49.094,15.732,49.211z"/>
<path id="path3252_1_" fill="#B8A187" d="M11.535,45.281c1.16,0.59,3.133,3.09,3.133,3.09C8.141,47.859,7.385,45.07,7,42.117
	C7.004,42.129,9.26,44.117,11.535,45.281z"/>
<path id="path3254_1_" fill="#B8A187" d="M15.432,44.352c0.664,1.133,0.26,3.859,0.26,3.859c-3.139-3.273-3.832-6.164-1.482-8.945
	C14.287,40.672,15.199,43.945,15.432,44.352z"/>
<path id="path3256_1_" fill="#B8A187" d="M9.936,38.629c-0.852-1.316-3.184-3.223-3.184-3.223l-0.26-0.609
	c0.053,3.871,0.848,7.574,5.309,9.492C11.797,44.289,10.732,39.859,9.936,38.629z"/>
<path id="path3258_1_" fill="#B8A187" d="M9.355,30.572c0.613,2.588,0,6.116,0,6.116c-4.268-3.119-2.479-9.215-2.463-10.349
	C6.893,26.34,8.736,27.984,9.355,30.572z"/>
<path id="path3260_1_" fill="#B8A187" d="M10.236,23.252c0.416,1.625,0.229,3.553-0.416,6.221c0,0-1.904-2.354-1.936-4.756
	c-0.033-2.404,1.828-4.865,1.828-4.865C9.66,21.1,9.973,22.209,10.236,23.252z"/>
<path id="path3262_1_" fill="#B8A187" d="M13.951,14.936c-3.039,2.277-4.188,4.805-2.619,8.057
	C12.816,20.703,13.996,18.328,13.951,14.936z"/>
<path id="path3264_1_" fill="#B8A187" d="M15.496,16.084c0.527-0.447,1.504-0.947,1.852-1.461c1.1-1.607,1.252-3.871,1.252-3.871
	s-2.531,1.793-3.336,2.881c-1.172,1.563-0.736,3.764-0.736,3.764S14.98,16.531,15.496,16.084z"/>
<path id="path3266_1_" fill="#B8A187" d="M19.129,12.221c0.348-1.385,0.482-2.781,3.395-4.029
	C22.348,10.012,20.637,11.064,19.129,12.221z"/>
<path id="path3268_1_" fill="#B8A187" d="M26.287,6.256c-0.611,1.58-1.895,2.496-3.34,3.244C22.832,8.035,24.172,7.027,26.287,6.256
	z"/>
<path id="path3270_1_" fill="#B8A187" d="M29.469,7.424c-2.293-0.465-2.641,0.313-3.365,0.84
	C27.656,8.291,28.947,8.133,29.469,7.424z"/>
<path id="path3272_1_" fill="#B8A187" d="M27.668,9.221c-2.332-0.209-4.24,0.012-5.1,1.287
	C24.904,10.787,26.527,10.275,27.668,9.221z"/>
<path id="path3274_1_" fill="#B8A187" d="M25.035,11.74c-0.895,1.527-3.451,1.676-6.107,1.732
	C20.18,12.111,21.717,11.031,25.035,11.74z"/>
<path id="path3276_1_" fill="#B8A187" d="M18.699,16.725c1.389-0.469,2.049-1.592,2.809-2.521c0,0-3.057,0.42-3.816,0.785
	c-1.6,0.768-2.355,2.688-2.355,2.688C16.324,17.287,17.488,17.137,18.699,16.725z"/>
<path id="path3280_1_" fill="#B8A187" d="M13.947,26.48c0.584-1.168,2.186-3.752,2.186-3.752c-2.885,1.084-5.5,2.492-5.438,7.107
	C10.695,29.836,13.436,27.48,13.947,26.48z"/>
<path id="path3282_1_" fill="#B8A187" d="M12.768,32.527c1.441-1.624,1.285-5.16,1.285-5.16s-2.537,2.137-3.473,4.092
	c-0.936,1.965-0.283,3.752-0.283,3.752S12.217,33.145,12.768,32.527z"/>
<path id="path3284_1_" fill="#B8A187" d="M11.928,41.836c-1.299-3.891-1.057-7.125,1.68-9.367
	C14.104,35.906,13.951,39.141,11.928,41.836z"/>
</svg>
